<?xml version="1.0" encoding="UTF-8" standalone="no"?>
<svg
   xmlns:dc="http://purl.org/dc/elements/1.1/"
   xmlns:cc="http://creativecommons.org/ns#"
   xmlns:rdf="http://www.w3.org/1999/02/22-rdf-syntax-ns#"
   xmlns:svg="http://www.w3.org/2000/svg"
   xmlns="http://www.w3.org/2000/svg"
   xmlns:sodipodi="http://sodipodi.sourceforge.net/DTD/sodipodi-0.dtd"
   xmlns:inkscape="http://www.inkscape.org/namespaces/inkscape"
   width="16px"
   height="16px"
   viewBox="0 0 16 16"
   version="1.1"
   id="svg13"
   sodipodi:docname="org.gustavoperedo.FontDownloader-symbolic.svg"
   inkscape:version="1.0.2 (e86c870879, 2021-01-15)">
  <path
     id="rect863"
     style="fill:#cccccf;fill-opacity:1;stroke-width:6.8;stroke-linecap:round;stroke-linejoin:round;paint-order:fill markers stroke"
     d="m 12.52107,0.85850333 0.497754,0.00281 c 0.640236,0.003614 1.155678,0.51543257 1.155678,1.15567847 V 12.844322 C 14.174502,13.484567 13.65907,14 13.018824,14 H 12.72877 c 0.0022,-2 0.0012,-8.5965607 0.0012,-11.9830082 0,-0.6402459 -0.436184,-1.15976135 -0.208901,-1.15847847 z"
     sodipodi:nodetypes="sssssccss" />
  <metadata
     id="metadata19">
    <rdf:RDF>
      <cc:Work
         rdf:about="">
        <dc:format>image/svg+xml</dc:format>
        <dc:type
           rdf:resource="http://purl.org/dc/dcmitype/StillImage" />
        <dc:title />
      </cc:Work>
    </rdf:RDF>
  </metadata>
  <defs
     id="defs17">
    <inkscape:path-effect
       effect="powermask"
       id="path-effect1522"
       is_visible="true"
       lpeversion="1"
       uri="#mask-powermask-path-effect1522"
       invert="false"
       hide_mask="false"
       background="true"
       background_color="#ffffffff" />
    <inkscape:path-effect
       effect="powermask"
       id="path-effect1036"
       is_visible="true"
       lpeversion="1"
       uri="#mask-powermask-path-effect1036"
       invert="false"
       hide_mask="false"
       background="true"
       background_color="#ffffffff" />
    <mask
       maskUnits="userSpaceOnUse"
       id="mask-powermask-path-effect1036">
      <g
         id="g1034"
         clip-path="none"
         style="">
        <text
           xml:space="preserve"
           style="font-style:normal;font-variant:normal;font-weight:bold;font-stretch:normal;font-size:4.60908px;line-height:1.25;font-family:sans-serif;-inkscape-font-specification:'sans-serif Bold';display:inline;fill:#241f31;fill-opacity:1;stroke:none;stroke-width:0.115227;enable-background:new"
           x="5.5837083"
           y="5.5834007"
           id="text1020"
           inkscape:export-xdpi="96"
           inkscape:export-ydpi="96"><tspan
             sodipodi:role="line"
             id="tspan1018"
             x="5.5837083"
             y="5.5834007"
             style="font-style:normal;font-variant:normal;font-weight:bold;font-stretch:normal;font-family:sans-serif;-inkscape-font-specification:'sans-serif Bold';stroke-width:0.115227">a</tspan></text>
        <text
           xml:space="preserve"
           style="font-style:normal;font-variant:normal;font-weight:bold;font-stretch:normal;font-size:4.60908px;line-height:1.25;font-family:sans-serif;-inkscape-font-specification:'sans-serif Bold';display:inline;fill:#241f31;fill-opacity:1;stroke:none;stroke-width:0.115227;enable-background:new"
           x="10.192801"
           y="5.5834007"
           id="text1024"
           inkscape:export-xdpi="96"
           inkscape:export-ydpi="96"><tspan
             sodipodi:role="line"
             id="tspan1022"
             x="10.192801"
             y="5.5834007"
             style="font-style:normal;font-variant:normal;font-weight:bold;font-stretch:normal;font-family:sans-serif;-inkscape-font-specification:'sans-serif Bold';fill:#241f31;fill-opacity:1;stroke-width:0.115227">a</tspan></text>
        <text
           xml:space="preserve"
           style="font-style:normal;font-variant:normal;font-weight:bold;font-stretch:normal;font-size:4.60908px;line-height:1.25;font-family:sans-serif;-inkscape-font-specification:'sans-serif Bold';display:inline;fill:#241f31;fill-opacity:1;stroke:none;stroke-width:0.115227;enable-background:new"
           x="5.5837083"
           y="11.114309"
           id="text1028"
           inkscape:export-xdpi="96"
           inkscape:export-ydpi="96"><tspan
             sodipodi:role="line"
             id="tspan1026"
             x="5.5837083"
             y="11.114309"
             style="font-style:normal;font-variant:normal;font-weight:bold;font-stretch:normal;font-family:sans-serif;-inkscape-font-specification:'sans-serif Bold';fill:#241f31;fill-opacity:1;stroke-width:0.115227">a</tspan></text>
        <text
           xml:space="preserve"
           style="font-style:normal;font-variant:normal;font-weight:bold;font-stretch:normal;font-size:4.60908px;line-height:1.25;font-family:sans-serif;-inkscape-font-specification:'sans-serif Bold';display:inline;fill:#241f31;fill-opacity:1;stroke:none;stroke-width:0.115227;enable-background:new"
           x="10.192801"
           y="11.114309"
           id="text1032"
           inkscape:export-xdpi="96"
           inkscape:export-ydpi="96"><tspan
             sodipodi:role="line"
             id="tspan1030"
             x="10.192801"
             y="11.114309"
             style="font-style:normal;font-variant:normal;font-weight:bold;font-stretch:normal;font-family:sans-serif;-inkscape-font-specification:'sans-serif Bold';fill:#241f31;fill-opacity:1;stroke-width:0.115227">a</tspan></text>
      </g>
    </mask>
    <clipPath
       clipPathUnits="userSpaceOnUse"
       id="clipPath958">
      <rect
         style="fill:#deddda;fill-opacity:1;stroke:none;stroke-width:1.75874;stroke-linecap:round;stroke-linejoin:round"
         id="rect960"
         width="1.3177092"
         height="29.633333"
         x="7.9375"
         y="1.0583334" />
    </clipPath>
    <clipPath
       clipPathUnits="userSpaceOnUse"
       id="clipPath1097">
      <path
         style="display:inline;fill:#2ec27e;fill-opacity:1;stroke:none;stroke-width:0.264583px;stroke-linecap:butt;stroke-linejoin:miter;stroke-opacity:1;enable-background:new"
         d="m 7.9375003,3.175 v 27.516667 c 0,-2.116667 -5.2916669,-2.116667 -5.2916669,0 V 3.175 c 0,-2.116667 2.6458338,-2.116667 2.6458338,-2.116667 0,0 2.6458331,0 2.6458331,2.116667 z"
         id="path1099"
         sodipodi:nodetypes="cccccc"
         inkscape:export-xdpi="96"
         inkscape:export-ydpi="96" />
    </clipPath>
    <clipPath
       clipPathUnits="userSpaceOnUse"
       id="clipPath958-6">
      <rect
         style="fill:#deddda;fill-opacity:1;stroke:none;stroke-width:1.75874;stroke-linecap:round;stroke-linejoin:round"
         id="rect960-7"
         width="1.3177092"
         height="29.633333"
         x="7.9375"
         y="1.0583334" />
    </clipPath>
    <clipPath
       clipPathUnits="userSpaceOnUse"
       id="clipPath1097-5">
      <path
         style="display:inline;fill:#2ec27e;fill-opacity:1;stroke:none;stroke-width:0.264583px;stroke-linecap:butt;stroke-linejoin:miter;stroke-opacity:1;enable-background:new"
         d="m 7.9375003,3.175 v 27.516667 c 0,-2.116667 -5.2916669,-2.116667 -5.2916669,0 V 3.175 c 0,-2.116667 2.6458338,-2.116667 2.6458338,-2.116667 0,0 2.6458331,0 2.6458331,2.116667 z"
         id="path1099-3"
         sodipodi:nodetypes="cccccc"
         inkscape:export-xdpi="96"
         inkscape:export-ydpi="96" />
    </clipPath>
    <mask
       maskUnits="userSpaceOnUse"
       id="mask-powermask-path-effect1522">
      <text
         xml:space="preserve"
         style="font-size:6.97418px;line-height:1.25;font-family:Helvetica;-inkscape-font-specification:Helvetica;stroke-width:0.174356"
         x="4.8664556"
         y="9.7485771"
         id="text1520"><tspan
           sodipodi:role="line"
           id="tspan1518"
           x="4.8664556"
           y="9.7485771"
           style="font-style:normal;font-variant:normal;font-weight:normal;font-stretch:normal;font-family:'Liberation Serif';-inkscape-font-specification:'Liberation Serif';stroke-width:0.174356">Aa</tspan></text>
    </mask>
  </defs>
  <sodipodi:namedview
     pagecolor="#ffffff"
     bordercolor="#666666"
     borderopacity="1"
     objecttolerance="10"
     gridtolerance="10"
     guidetolerance="10"
     inkscape:pageopacity="0"
     inkscape:pageshadow="2"
     inkscape:window-width="1366"
     inkscape:window-height="704"
     id="namedview15"
     showgrid="true"
     inkscape:zoom="226.00117"
     inkscape:cx="6.373516"
     inkscape:cy="8.9911993"
     inkscape:window-x="0"
     inkscape:window-y="0"
     inkscape:window-maximized="1"
     inkscape:current-layer="svg13"
     inkscape:document-rotation="0">
    <inkscape:grid
       type="xygrid"
       id="grid6" />
  </sodipodi:namedview>
  <path
     style="display:inline;fill:#cccccc;fill-opacity:1;stroke:none;stroke-width:0.117265px;stroke-linecap:butt;stroke-linejoin:miter;stroke-opacity:1;enable-background:new"
     d="M 3.3453041,1.8044195 V 14 C 3.3453041,13.061878 1,13.061878 1,14 V 1.8044195 C 1,0.8662978 2.1726523,0.8662978 2.1726523,0.8662978 c 0,0 1.1726518,0 1.1726518,0.9381217 z"
     id="path889-3"
     sodipodi:nodetypes="cccccc"
     inkscape:export-xdpi="96"
     inkscape:export-ydpi="96" />
  <path
     style="display:inline;fill:#cccccc;fill-opacity:1;stroke:none;stroke-width:0.117265px;stroke-linecap:butt;stroke-linejoin:miter;stroke-opacity:1;enable-background:new"
     d="m 3.3453041,14.534881 c -1.3618785,0 -1.3618785,0 -2.3453041,0 0,-0.938121 1.1726523,-0.938121 1.1726523,-0.938121 0,0 1.1726518,0 1.1726518,0.938121 z"
     id="path889-3-3"
     sodipodi:nodetypes="cccc"
     inkscape:export-xdpi="96"
     inkscape:export-ydpi="96" />
  <path
     id="rect1243"
     style="fill:#cccccc;fill-opacity:1;stroke-width:0.999363"
     d="m 1,14.469061 9.839952,0.01871 v 0.5 c 0,0.497352 0,0.49989 -0.9987269,0.499186 L 1,15.469081 Z"
     sodipodi:nodetypes="cccccc" />
  <path
     d="M 9.9281873,9.6570253 8.1673584,14 12.923422,9.5065946 V 9.6570253 H 12.060955 L 11.99744,9.3427932 c -0.254061,0.25406 -0.578322,0.38109 -0.972783,0.38109 -0.537092,0 -0.805638,-0.3120036 -0.805638,-0.9360107 0,-0.2094881 0.04012,-0.3822044 0.120344,-0.5181488 0.08246,-0.138173 0.212831,-0.2429171 0.391119,-0.3142322 0.178288,-0.073544 0.436805,-0.1136584 0.775552,-0.1203442 l 0.471348,-0.013372 C 11.613937,7.1522218 11.537528,7.0034931 11.198672,7.024545 L 10.767254,7.2467977 H 10.580052 C 9.5603308,7.2993527 9.9070619,9.2125768 9.9281873,9.6570253 Z"
     style="font-style:normal;font-variant:normal;font-weight:normal;font-stretch:normal;font-size:6.84625px;line-height:1.25;font-family:'Liberation Serif';-inkscape-font-specification:'Liberation Serif';fill:#cccccf;fill-opacity:1;stroke:none;stroke-width:0.171156"
     id="path911"
     sodipodi:nodetypes="ccccccsscccccccc" />
  <path
     style="fill:#cccccf;stroke:none;stroke-width:1px;stroke-linecap:butt;stroke-linejoin:miter;stroke-opacity:1;fill-opacity:1"
     d="M 5.1010462,9.6570253 V 9.4798519 L 5.6091663,9.3895937 7.1368696,5.1374306 7.1369019,0.87205505 3.8517925,2 l 0.00224,12 z"
     id="path914" />
  <path
     style="fill:#cccccf;stroke:none;stroke-width:1px;stroke-linecap:butt;stroke-linejoin:miter;stroke-opacity:1;fill-opacity:1"
     d="M 5.1010462,9.6570253 H 6.5752631 V 9.4798519 L 5.9735419,9.3895937 6.4248328,8.0958931 8.1673584,14 H 3.8540325 Z"
     id="path916" />
  <path
     style="fill:#cccccf;stroke:none;stroke-width:1px;stroke-linecap:butt;stroke-linejoin:miter;stroke-opacity:1;fill-opacity:1"
     d="M 6.4248328,8.0958931 H 8.1898817 L 8.6344868,9.3895937 8.0327656,9.4798519 V 9.6570253 H 9.9281873 L 8.1673584,14 Z"
     id="path918" />
  <path
     style="fill:#cccccf;stroke:none;stroke-width:1px;stroke-linecap:butt;stroke-linejoin:miter;stroke-opacity:1;fill-opacity:1"
     d="m 7.2939857,5.6188075 0.7922662,2.176225 H 6.5251197 Z"
     id="path920" />
  <path
     style="fill:#cccccf;stroke:none;stroke-width:1px;stroke-linecap:butt;stroke-linejoin:miter;stroke-opacity:1;fill-opacity:1"
     d="M 9.9281873,9.4798517 10.580052,7.2467977 V 6.5615041 L 7.1369019,0.87205505 7.1368696,5.1374306 h 0.6351501 l 1.5878754,4.2521631 z"
     id="path922" />
  <path
     style="fill:#cccccf;fill-opacity:1;stroke:none;stroke-width:1px;stroke-linecap:butt;stroke-linejoin:miter;stroke-opacity:1"
     d="m 10.580052,7.2467977 h 0.187202 l 0.113658,-0.3911188 c 1.29946,-0.5688897 1.096052,0.3289696 1.09647,0.9660964 z"
     id="path924"
     sodipodi:nodetypes="ccccc" />
  <path
     style="fill:#cccccf;fill-opacity:1;stroke:none;stroke-width:1px;stroke-linecap:butt;stroke-linejoin:miter;stroke-opacity:1"
     d="M 11.977382,8.0557784 V 9.1723063 C 11.625688,9.3268594 10.742826,9.6922742 10.777863,8.7043304 10.723204,8.011699 11.389181,8.0745042 11.977382,8.0557784 Z"
     id="path928"
     sodipodi:nodetypes="cccc" />
  <path
     style="fill:#cccccf;fill-opacity:1;stroke:none;stroke-width:1px;stroke-linecap:butt;stroke-linejoin:miter;stroke-opacity:1"
     d="m 10.580052,6.5615041 c 0.480715,-0.058775 0.97887,-0.2049285 1.452619,-0.0437 L 7.1369019,0.87205505"
     id="path930"
     sodipodi:nodetypes="ccc" />
  <path
     style="fill:#cccccf;fill-opacity:1;stroke:none;stroke-width:1px;stroke-linecap:butt;stroke-linejoin:miter;stroke-opacity:1"
     d="m 12.032671,6.5178041 c 0.267399,0.072437 0.450217,0.2704573 0.504044,0.6599999 l -0.0044,2.2452186 0.391119,0.083572 -0.02191,-3.4442609 z"
     id="path932"
     sodipodi:nodetypes="cccccc" />
  <path
     style="fill:#cccccf;stroke:none;stroke-width:1px;stroke-linecap:butt;stroke-linejoin:miter;stroke-opacity:1;fill-opacity:1"
     d="M 8.1673584,14 H 12.72877 L 12.7506,9.667508 Z"
     id="path938" />
  <path
     id="rect863-8"
     style="fill:#cccccf;fill-opacity:1;stroke-width:6.8;stroke-linecap:round;stroke-linejoin:round;paint-order:fill markers stroke"
     d="m 5.5042305,0.85850321 -0.497754,0.00281 c -0.640236,0.00361 -1.155678,0.51543259 -1.155678,1.15567849 V 12.844322 C 3.8507985,13.484567 4.3662305,14 5.0064765,14 h 0.290054 c -0.0022,-2 -0.0012,-8.5965608 -0.0012,-11.9830083 0,-0.6402459 0.436184,-1.15976139 0.208901,-1.15847849 z"
     sodipodi:nodetypes="sssssccss" />
  <path
     style="fill:#cccccf;fill-opacity:1;stroke:none;stroke-width:1px;stroke-linecap:butt;stroke-linejoin:miter;stroke-opacity:1"
     d="m 5.5042305,0.85850321 1.6326714,0.0135518 5.3841671,-0.0135417 C 13.739076,4.2131822 13.883571,6.4263644 12.032671,6.5178041 L 7.1369019,0.87205505 5.1659882,1.6597739 Z"
     id="path960"
     sodipodi:nodetypes="ccccccc" />
  <rect
     style="fill:#cccccc;fill-opacity:1;stroke:none;stroke-width:0.06;stroke-linecap:round;stroke-linejoin:round;stroke-miterlimit:4;stroke-dasharray:none;stroke-opacity:1;paint-order:markers fill stroke"
     id="rect962"
     width="7.8989539"
     height="4.3429747"
     x="5.1010461"
     y="9.6570253"
     ry="1.1556799" />
  <rect
     style="fill:#cccccc;fill-opacity:1;stroke:none;stroke-width:0.0930187;stroke-linecap:round;stroke-linejoin:round;stroke-miterlimit:4;stroke-dasharray:none;stroke-opacity:1;paint-order:markers fill stroke"
     id="rect964"
     width="2.0564921"
     height="4.1851473"
     x="8.5235605"
     y="2.3763566"
     ry="0" />
  <path
     style="fill:#cccccc;stroke:none;stroke-width:1px;stroke-linecap:butt;stroke-linejoin:miter;stroke-opacity:1;fill-opacity:1"
     d="m 10.283465,4.7623661 c 0,0 1.437576,0.1797829 1.533857,0.2376339 0.09628,0.057851 0.215349,1.5178041 0.215349,1.5178041 z"
     id="path966" />
  <rect
     style="fill:#cccccc;fill-opacity:1;stroke:none;stroke-width:0.06;stroke-linecap:round;stroke-linejoin:round;stroke-miterlimit:4;stroke-dasharray:none;stroke-opacity:1;paint-order:markers fill stroke"
     id="rect968"
     width="4.6980319"
     height="4.2666111"
     x="6.7577662"
     y="0.87335205" />
  <path
     style="fill:#cccccc;stroke:none;stroke-width:1px;stroke-linecap:butt;stroke-linejoin:miter;stroke-opacity:1;fill-opacity:1"
     d="m 6.4248328,8.0958931 c 0.2791734,1.804014 0.2791734,1.804014 0.2791734,1.804014 l 0.8476864,-0.457098 z"
     id="path970" />
</svg>
