<?xml version="1.0" encoding="UTF-8"?>
<svg height="16px" viewBox="0 0 16 16" width="16px" xmlns="http://www.w3.org/2000/svg">
    <g fill="#3d3846">
        <path d="m 6.855469 0.304688 l -4.214844 9.847656 c -0.855469 2.007812 -1.542969 2.730468 -2.640625 2.84375 v 1.003906 h 5.371094 v -1.003906 c -1.320313 -0.074219 -1.839844 -0.425782 -1.839844 -1.28125 c 0 -0.316406 0.074219 -0.613282 0.277344 -1.058594 l 0.296875 -0.707031 h 4.628906 l 0.703125 1.820312 c 0.046875 0.117188 0.054688 0.152344 0.082031 0.230469 h 1.480469 v -5.101562 l -2.730469 -6.59375 z m -0.390625 3.957031 l 1.804687 4.441406 h -3.679687 z m 0 0"/>
        <path d="m 12 9 h 2 v 4 h 2 l -3 3 l -3 -3 h 2 z m 0 0"/>
        <path d="m 12 8 h 2 v 5 h 2 l -3 3 l -3 -3 h 2 z m 0 0"/>
    </g>
</svg>
