<?xml version="1.0" encoding="UTF-8"?>
<svg height="128px" viewBox="0 0 128 128" width="128px" xmlns="http://www.w3.org/2000/svg" xmlns:xlink="http://www.w3.org/1999/xlink">
    <clipPath id="a">
        <path d="m 30 4 h 4.980469 v 112 h -4.980469 z m 0 0"/>
    </clipPath>
    <linearGradient id="b" gradientUnits="userSpaceOnUse" x1="30.0000025625" x2="34.98031930614" y1="59.999991125" y2="59.999991125">
        <stop offset="0" stop-color="#c0bfbc"/>
        <stop offset="1" stop-color="#9a9996" stop-opacity="0"/>
    </linearGradient>
    <clipPath id="c">
        <path d="m 27 4 h 3 v 112 h -3 z m 0 0"/>
    </clipPath>
    <clipPath id="d">
        <path d="m 30 12 v 104 c 0 -8 -20 -8 -20 0 v -104 c 0 -8 10 -8 10 -8 s 10 0 10 8 z m 0 0"/>
    </clipPath>
    <linearGradient id="e" gradientUnits="userSpaceOnUse" x1="30.0000025625" x2="27.00000300625" y1="62.99999446078" y2="62.99999446078">
        <stop offset="0" stop-color="#26a269"/>
        <stop offset="1" stop-color="#26a269" stop-opacity="0"/>
    </linearGradient>
    <clipPath id="f">
        <path d="m 30 4 h 4.980469 v 112 h -4.980469 z m 0 0"/>
    </clipPath>
    <clipPath id="g">
        <path d="m 27 4 h 3 v 112 h -3 z m 0 0"/>
    </clipPath>
    <clipPath id="h">
        <path d="m 30 12 v 104 c 0 -8 -20 -8 -20 0 v -104 c 0 -8 10 -8 10 -8 s 10 0 10 8 z m 0 0"/>
    </clipPath>
    <clipPath id="i">
        <rect height="128" width="128"/>
    </clipPath>
    <clipPath id="j">
        <rect height="128" width="128"/>
    </clipPath>
    <filter id="k" height="100%" width="100%" x="0%" y="0%">
        <feColorMatrix in="SourceGraphic" type="matrix" values="0 0 0 0 1 0 0 0 0 1 0 0 0 0 1 0 0 0 1 0"/>
    </filter>
    <mask id="l">
        <g clip-path="url(#j)" filter="url(#k)">
            <g clip-path="url(#i)">
                <path d="m 10 116 v -104 h 78 c 10.339844 2.96875 9.378906 6.527344 10 10 v 94 c -1.839844 7.140625 -7.011719 7.378906 -12 8 h -66 c -4.109375 -0.195312 -8.726562 -1.921875 -10 -8 z m 0 0" fill="#26a269"/>
                <path d="m 30 14 v 104 h 78 c 10.339844 -2.96875 9.378906 -6.527344 10 -10 v -94 c -1.839844 -7.140625 -7.011719 -7.378906 -12 -8 h -66 c -4.109375 0.195312 -8.726562 1.921875 -10 8 z m 0 0" fill="#9a9996"/>
                <path d="m 30 12 v 104 h 78 c 10.339844 -2.96875 9.378906 -6.527344 10 -10 v -94 c -1.839844 -7.140625 -7.011719 -7.378906 -12 -8 h -66 c -4.109375 0.195312 -8.726562 1.921875 -10 8 z m 0 0" fill="#f6f5f4"/>
                <path d="m 30 12 v 104 c 0 -8 -20 -8 -20 0 v -104 c 0 -8 10 -8 10 -8 s 10 0 10 8 z m 0 0" fill="#2ec27e"/>
                <g>
                    <use x="40.140625" xlink:href="#q" y="76.833874"/>
                    <use x="81.715426" xlink:href="#r" y="76.833874"/>
                </g>
                <g clip-path="url(#f)">
                    <path d="m 30 12 v 104 h 78 c 10.339844 -2.96875 9.378906 -6.527344 10 -10 v -94 c -1.839844 -7.140625 -7.011719 -7.378906 -12 -8 h -66 c -4.109375 0.195312 -8.726562 1.921875 -10 8 z m 0 0" fill="url(#b)"/>
                </g>
                <g clip-path="url(#g)">
                    <g clip-path="url(#h)">
                        <path d="m 27.019531 0.261719 h 2.980469 v 119.738281 h -2.980469 z m 0 0" fill="url(#e)"/>
                    </g>
                </g>
            </g>
        </g>
    </mask>
    <mask id="m">
        <g filter="url(#k)">
            <rect fill-opacity="0.8" height="128" width="128"/>
        </g>
    </mask>
    <linearGradient id="n" gradientTransform="matrix(0 0.37 -0.98462 0 295.38501 -30.360001)" gradientUnits="userSpaceOnUse" x1="300" x2="428" y1="235" y2="235">
        <stop offset="0" stop-color="#f9f06b"/>
        <stop offset="1" stop-color="#f5c211"/>
    </linearGradient>
    <clipPath id="o">
        <rect height="128" width="128"/>
    </clipPath>
    <clipPath id="p">
        <rect height="128" width="128"/>
    </clipPath>
    <symbol id="q" overflow="visible">
        <path d="m 13.4375 -1.546875 v 1.546875 h -12.859375 v -1.546875 l 4.4375 -0.78125 l 13.328125 -37.078125 h 5.53125 l 13.84375 37.078125 l 4.953125 0.78125 v 1.546875 h -16.515625 v -1.546875 l 5.234375 -0.78125 l -3.875 -11.28125 h -15.390625 l -3.9375 11.28125 z m 6.265625 -33.671875 l -6.703125 18.984375 h 13.609375 z m 0 0"/>
    </symbol>
    <symbol id="r" overflow="visible">
        <path d="m 13.5625 -28.015625 c 2.988281 0 5.1875 0.617187 6.59375 1.84375 c 1.40625 1.21875 2.109375 3.09375 2.109375 5.625 v 18.5 l 3.421875 0.734375 v 1.3125 h -7.53125 l -0.546875 -2.734375 c -2.21875 2.210937 -5.046875 3.3125 -8.484375 3.3125 c -4.6875 0 -7.03125 -2.71875 -7.03125 -8.15625 c 0 -1.820313 0.351562 -3.332031 1.0625 -4.53125 c 0.71875 -1.195313 1.851562 -2.109375 3.40625 -2.734375 c 1.550781 -0.632812 3.804688 -0.984375 6.765625 -1.046875 l 4.109375 -0.109375 v -4.296875 c 0 -1.882813 -0.351562 -3.269531 -1.046875 -4.15625 c -0.6875 -0.894531 -1.75 -1.34375 -3.1875 -1.34375 c -1.9375 0 -3.714844 0.460937 -5.328125 1.375 l -1 3.40625 h -1.625 v -5.984375 c 3.144531 -0.675781 5.914062 -1.015625 8.3125 -1.015625 z m 3.875 14.046875 l -3.828125 0.125 c -2.605469 0.09375 -4.371094 0.601562 -5.296875 1.515625 c -0.917969 0.90625 -1.375 2.433594 -1.375 4.578125 c 0 3.417969 1.390625 5.125 4.171875 5.125 c 1.320313 0 2.460937 -0.148438 3.421875 -0.453125 c 0.957031 -0.300781 1.925781 -0.6875 2.90625 -1.15625 z m 0 0"/>
    </symbol>
    <path d="m 10 116 v -104 h 78 c 10.339844 2.96875 9.378906 6.527344 10 10 v 94 c -1.839844 7.140625 -7.011719 7.378906 -12 8 h -66 c -4.109375 -0.195312 -8.726562 -1.921875 -10 -8 z m 0 0" fill="#26a269"/>
    <path d="m 30 14 v 104 h 78 c 10.339844 -2.96875 9.378906 -6.527344 10 -10 v -94 c -1.839844 -7.140625 -7.011719 -7.378906 -12 -8 h -66 c -4.109375 0.195312 -8.726562 1.921875 -10 8 z m 0 0" fill="#9a9996"/>
    <path d="m 30 12 v 104 h 78 c 10.339844 -2.96875 9.378906 -6.527344 10 -10 v -94 c -1.839844 -7.140625 -7.011719 -7.378906 -12 -8 h -66 c -4.109375 0.195312 -8.726562 1.921875 -10 8 z m 0 0" fill="#f6f5f4"/>
    <path d="m 30 12 v 104 c 0 -8 -20 -8 -20 0 v -104 c 0 -8 10 -8 10 -8 s 10 0 10 8 z m 0 0" fill="#2ec27e"/>
    <g>
        <use x="40.140625" xlink:href="#q" y="76.833874"/>
        <use x="81.715426" xlink:href="#r" y="76.833874"/>
    </g>
    <g clip-path="url(#a)">
        <path d="m 30 12 v 104 h 78 c 10.339844 -2.96875 9.378906 -6.527344 10 -10 v -94 c -1.839844 -7.140625 -7.011719 -7.378906 -12 -8 h -66 c -4.109375 0.195312 -8.726562 1.921875 -10 8 z m 0 0" fill="url(#b)"/>
    </g>
    <g clip-path="url(#c)">
        <g clip-path="url(#d)">
            <path d="m 27.019531 0.261719 h 2.980469 v 119.738281 h -2.980469 z m 0 0" fill="url(#e)"/>
        </g>
    </g>
    <g clip-path="url(#p)" mask="url(#l)">
        <g clip-path="url(#o)" mask="url(#m)">
            <path d="m 128 80.640625 v 47.359375 h -128 v -47.359375 z m 0 0" fill="url(#n)"/>
            <path d="m 13.308594 80.640625 l 47.355468 47.359375 h 21.214844 l -47.359375 -47.359375 z m 42.421875 0 l 47.363281 47.359375 h 21.214844 l -47.363282 -47.359375 z m 42.429687 0 l 29.839844 29.839844 v -21.210938 l -8.628906 -8.628906 z m -98.160156 7.90625 v 21.214844 l 18.238281 18.238281 h 21.214844 z m 0 0"/>
        </g>
    </g>
</svg>
