<?xml version="1.0" encoding="UTF-8"?>
<svg height="128px" viewBox="0 0 128 128" width="128px" xmlns="http://www.w3.org/2000/svg" xmlns:xlink="http://www.w3.org/1999/xlink">
    <linearGradient id="a" gradientUnits="userSpaceOnUse" x1="12" x2="28" y1="68" y2="68">
        <stop offset="0" stop-color="#218c5b"/>
        <stop offset="0.5" stop-color="#2ec27e"/>
        <stop offset="1" stop-color="#26a269"/>
    </linearGradient>
    <linearGradient id="b" gradientUnits="userSpaceOnUse" x1="108" x2="116" y1="102" y2="102">
        <stop offset="0" stop-color="#c0bfbc"/>
        <stop offset="0.5" stop-color="#f6f5f4"/>
        <stop offset="1" stop-color="#c0bfbc"/>
    </linearGradient>
    <linearGradient id="c" gradientTransform="matrix(0 -1 1 0 300 96)" gradientUnits="userSpaceOnUse" x1="-21.00757" x2="-13.146549" y1="-271.960724" y2="-281.372711">
        <stop offset="0" stop-color="#1a6f48"/>
        <stop offset="0.277623" stop-color="#1a6f48"/>
        <stop offset="1" stop-color="#0e3b27" stop-opacity="0.9875"/>
    </linearGradient>
    <linearGradient id="d" gradientTransform="matrix(0.940909 0 0 0.94091 1.223731 -155.280964)" gradientUnits="userSpaceOnUse" x1="18.367126" x2="21.072931" y1="280.538696" y2="285.384521">
        <stop offset="0" stop-color="#1d7d51"/>
        <stop offset="1" stop-color="#26a269"/>
    </linearGradient>
    <path d="m 20 104 h 60 c 4.417969 0 8 3.582031 8 8 s -3.582031 8 -8 8 h -60 c -4.417969 0 -8 -3.582031 -8 -8 s 3.582031 -8 8 -8 z m 0 0" fill="#1a6f48"/>
    <path d="m 20 8 c 4.433594 0 8 3.566406 8 8 v 96 h -16 v -96 c 0 -4.433594 3.566406 -8 8 -8 z m 0 0" fill="url(#a)"/>
    <g fill="#f6f5f4">
        <path d="m 28 36 h 18 v 76 h -18 z m 0 0"/>
        <path d="m 36 88 h 72 c 4.417969 0 8 3.582031 8 8 s -3.582031 8 -8 8 h -72 c -4.417969 0 -8 -3.582031 -8 -8 s 3.582031 -8 8 -8 z m 0 0"/>
        <path d="m 28 16 h 88 v 80 h -88 z m 0 0"/>
        <path d="m 36 8 h 72 c 4.417969 0 8 3.582031 8 8 s -3.582031 8 -8 8 h -72 c -4.417969 0 -8 -3.582031 -8 -8 s 3.582031 -8 8 -8 z m 0 0"/>
        <path d="m 36 88 h 72 c 4.417969 0 8 3.582031 8 8 s -3.582031 8 -8 8 h -72 c -4.417969 0 -8 -3.582031 -8 -8 s 3.582031 -8 8 -8 z m 0 0"/>
    </g>
    <path d="m 68.003906 29.230469 l -15.640625 36.507812 c -3.167969 7.441407 -5.714843 10.128907 -9.78125 10.542969 v 3.71875 h 19.910157 v -3.71875 c -4.890626 -0.277344 -6.820313 -1.585938 -6.820313 -4.753906 c 0 -1.171875 0.273437 -2.273438 1.03125 -3.925782 l 1.105469 -2.621093 h 17.152344 l 2.617187 6.753906 c 0.757813 1.929687 0.828125 2.273437 0.828125 2.824219 c 0 1.238281 -0.964844 1.652344 -3.996094 1.652344 l -1.171875 0.070312 v 3.71875 h 24.179688 v -3.71875 c -3.925781 -0.140625 -5.027344 -0.828125 -6.476563 -4.339844 l -17.703125 -42.710937 z m -1.449218 14.671875 l 6.683593 16.464844 h -13.640625 z m 0 0" fill="#3d3846"/>
    <path d="m 116 96 c 0 4.433594 -3.566406 8 -8 8 h -72 c -4.417969 0 -8 3.582031 -8 8 h 80 c 4.417969 0 8 -3.582031 8 -8 z m 0 0" fill="url(#b)"/>
    <path d="m 20 104 c 4.417969 0 8 3.582031 8 8 s -3.582031 8 -8 8 s -8 -3.582031 -8 -8 s 3.582031 -8 8 -8 z m 0 0" fill="url(#c)"/>
    <path d="m 20 103.875 c -4.53125 0 -8 3.488281 -8 8.125 c 0 4 3 8 8 8 v -2 c -3.523438 0 -6 -2.617188 -6 -6 c 0 -3.652344 2.414062 -6.09375 6.011719 -6.167969 c 3.382812 0 5.988281 2.660157 5.988281 6.042969 h 2 c 0 -5 -3.984375 -8 -8 -8 z m 0 0" fill="url(#d)"/>
    <path d="m 19.683594 118 h 60.316406 c 3.894531 0 8 -2.179688 8 -6 c 0 4.1875 -3.257812 8 -8 8 h -60.316406 z m 0 0" fill="#26a269"/>
    <path d="m 88 56 h 12 v 18 h 8 l -14 14 l -14 -14 h 8 z m 0 0" fill="#2ec27e" stroke="#f6f5f4" stroke-width="4"/>
    <path d="m 88 56 h 12 v 18 h 8 l -14 14 l -14 -14 h 8 z m 0 0" fill="#2ec27e"/>
</svg>
